<svg width="1440" height="692" viewBox="0 0 1440 692" fill="none" xmlns="http://www.w3.org/2000/svg">
<path d="M1010 635C999.576 586.897 751.5 491.5 496.5 586C143.925 686.91 -35.2132 421.151 -36.4997 421C-297.124 895.571 -73.1781 57.9098 -66.2685 7.48263L0.358932 0H1464.75V605.737C1456.49 523.428 1423.5 737 1164 682C1067.46 649.748 1025.64 641.37 1009.26 640.304C990.294 639.069 1005.43 647.634 1009.26 640.304C1009.91 639.046 1010.24 637.322 1010 635Z" fill="url(#paint0_linear_138_564)"/>
<circle opacity="0.5" cx="823.499" cy="175.5" r="57.5" fill="url(#paint1_linear_138_564)"/>
<g style="mix-blend-mode:hard-light" opacity="0.4">
<circle cx="39.247" cy="140.5" r="95.5" transform="rotate(-21.6672 39.247 140.5)" fill="url(#paint2_linear_138_564)"/>
</g>
<path d="M1182.01 377.429C1080.09 360.735 1021.65 240.505 1038.35 138.586C1055.04 36.6673 1132.52 179.831 1234.44 196.525C1336.36 213.22 1413.47 121.197 1396.78 223.116C1380.08 325.035 1283.93 394.123 1182.01 377.429Z" fill="url(#paint3_linear_138_564)"/>
<defs>
<linearGradient id="paint0_linear_138_564" x1="158.246" y1="-117" x2="1582.75" y2="658" gradientUnits="userSpaceOnUse">
<stop stop-color="#401D87"/>
<stop offset="0.421875" stop-color="#7B4DD9"/>
<stop offset="1" stop-color="#2AB9F6"/>
</linearGradient>
<linearGradient id="paint1_linear_138_564" x1="823.499" y1="118" x2="823.499" y2="233" gradientUnits="userSpaceOnUse">
<stop stop-color="white" stop-opacity="0"/>
<stop offset="1" stop-color="white" stop-opacity="0.21"/>
</linearGradient>
<linearGradient id="paint2_linear_138_564" x1="39.247" y1="45" x2="39.247" y2="236" gradientUnits="userSpaceOnUse">
<stop stop-color="white" stop-opacity="0"/>
<stop offset="1" stop-color="white" stop-opacity="0.21"/>
</linearGradient>
<linearGradient id="paint3_linear_138_564" x1="1386.96" y1="283.021" x2="1024.42" y2="223.636" gradientUnits="userSpaceOnUse">
<stop stop-color="#2AB9F6"/>
<stop offset="1" stop-color="#DCCEF3" stop-opacity="0"/>
</linearGradient>
</defs>
</svg>
