<svg version="1.2" xmlns="http://www.w3.org/2000/svg" viewBox="0 0 594 594" width="594" height="594">
	<title>image</title>
	<style>
		.s0 { fill: #26a17b;stroke: #ffffff;stroke-width: .4 } 
		.s1 { fill: #ffffff;stroke: #cccccc;stroke-linecap: round;stroke-linejoin: round;stroke-width: 9.2 } 
		.s2 { fill: #ffffff;stroke: #ffffff;stroke-width: 5.1 } 
	</style>
	<g id="SVGRepo_bgCarrier">
		<path id="Layer" class="s0" d="m0 297c0-164 133-297 297-297 164 0 297 133 297 297 0 164-133 297-297 297-164 0-297-133-297-297z"/>
	</g>
	<g id="SVGRepo_tracerCarrier">
		<g id="Layer">
			<g id="Layer">
				<path id="Layer" fill-rule="evenodd" class="s1" d="m553 297c0 141.4-114.6 256-256 256-141.4 0-256-114.6-256-256 0-141.4 114.6-256 256-256 141.4 0 256 114.6 256 256zm-25.6 0c0-127-103.4-230.4-230.4-230.4-127 0-230.4 103.4-230.4 230.4 0 127 103.4 230.4 230.4 230.4 127 0 230.4-103.4 230.4-230.4z"/>
			</g>
		</g>
		<g id="Layer">
			<g id="Layer">
				<path id="Layer" fill-rule="evenodd" class="s1" d="m393.8 360.4q0 34.8-26 57.2-24.4 20.9-60.8 23.6v28.8q0 10.4-10.4 10.4-10 0-10-10.4v-29.2q-39.2-3.6-60-19.2-28.4-22.4-28.4-70.8 0-6.8 3.6-10.4 3.2-3.6 8-3.6 4.8 0 8 3.6 3.6 3.6 3.6 10.4-0.4 34.5 20.4 52 16 13.2 44.8 16v-120.8q-40.8-9.6-60.4-26.4-21.6-18.4-21.6-48.4 0-35.1 24.4-56.4 22.4-19.2 57.6-20.4v-21.6c0-6.6 3.3-10 10-10q10.4 0.1 10.4 10v21.6q35.2 1.7 56.4 20.4 21.2 19.2 21.2 50.4 0 6.9-4 10.8-3.2 3.6-8.4 3.6-4.8 0-8.4-3.6-4-3.9-4-10.8c-0.8-16.8-6.9-29.4-18.4-38q-13.2-9.6-34.4-10.8v112.8q45.2 12.5 64.4 28.4 22.4 18.4 22.4 50.8zm-107.2-192.4q-22 1.7-37.6 13.2-19.2 14.4-19.2 39.2 0 20.4 12.8 33.6 13.2 13.7 44 21.6zm81.6 194.8q0-25.9-14-38.4-12.4-11.1-47.2-20v114.4q23.2-2.4 40-14.8 21.2-15.1 21.2-41.2z"/>
			</g>
		</g>
	</g>
	<g id="SVGRepo_iconCarrier">
		<g id="Layer">
			<g id="Layer">
				<path id="Layer" fill-rule="evenodd" class="s2" d="m553 297c0 141.4-114.6 256-256 256-141.4 0-256-114.6-256-256 0-141.4 114.6-256 256-256 141.4 0 256 114.6 256 256zm-25.6 0c0-127-103.4-230.4-230.4-230.4-127 0-230.4 103.4-230.4 230.4 0 127 103.4 230.4 230.4 230.4 127 0 230.4-103.4 230.4-230.4z"/>
			</g>
		</g>
		<g id="Layer">
			<g id="Layer">
				<path id="Layer" fill-rule="evenodd" class="s2" d="m393.8 360.4q0 34.8-26 57.2-24.4 20.9-60.8 23.6v28.8q0 10.4-10.4 10.4-10 0-10-10.4v-29.2q-39.2-3.6-60-19.2-28.4-22.4-28.4-70.8 0-6.8 3.6-10.4 3.2-3.6 8-3.6 4.8 0 8 3.6 3.6 3.6 3.6 10.4-0.4 34.5 20.4 52 16 13.2 44.8 16v-120.8q-40.8-9.6-60.4-26.4-21.6-18.4-21.6-48.4 0-35.1 24.4-56.4 22.4-19.2 57.6-20.4v-21.6c0-6.6 3.3-10 10-10q10.4 0.1 10.4 10v21.6q35.2 1.7 56.4 20.4 21.2 19.2 21.2 50.4 0 6.9-4 10.8-3.2 3.6-8.4 3.6-4.8 0-8.4-3.6-4-3.9-4-10.8c-0.8-16.8-6.9-29.4-18.4-38q-13.2-9.6-34.4-10.8v112.8q45.2 12.5 64.4 28.4 22.4 18.4 22.4 50.8zm-107.2-192.4q-22 1.7-37.6 13.2-19.2 14.4-19.2 39.2 0 20.4 12.8 33.6 13.2 13.7 44 21.6zm81.6 194.8q0-25.9-14-38.4-12.4-11.1-47.2-20v114.4q23.2-2.4 40-14.8 21.2-15.1 21.2-41.2z"/>
			</g>
		</g>
	</g>
</svg>